<svg xmlns="http://www.w3.org/2000/svg" id="search" width="21.926" height="21.927" viewBox="0 0 21.926 21.927">
    <defs>
        <style>
            .cls-1{fill:#fff}
        </style>
    </defs>
    <g id="Group_5962" data-name="Group 5962">
        <path id="Path_12410" d="M7.883 0a7.866 7.866 0 0 1 6.045 12.9l1.614 1.614c.006.006.007.014.014.02a2.133 2.133 0 0 1 2.429.4l3.328 3.327a2.146 2.146 0 0 1-3.034 3.039l-3.328-3.327a2.13 2.13 0 0 1-.4-2.431c-.006-.006-.013-.007-.02-.013l-1.614-1.614A7.868 7.868 0 1 1 7.883 0zm0 12.875a5.007 5.007 0 1 0-5.007-5.007 5.012 5.012 0 0 0 5.007 5.007z" class="cls-1" data-name="Path 12410" transform="translate(-.015)"/>
    </g>
</svg>
