<svg xmlns="http://www.w3.org/2000/svg" width="15.768" height="22.978" viewBox="0 0 15.768 22.978">
    <defs>
        <style>
            .cls-1{fill:#fff}
        </style>
    </defs>
    <path id="trending" d="M12.786 5.967a.673.673 0 0 0-1.249.348 1.49 1.49 0 1 1-2.98 0V.673A.673.673 0 0 0 7.408.2a32.916 32.916 0 0 0-3.689 4.607 26.146 26.146 0 0 0-2.544 4.742A15.03 15.03 0 0 0 0 15.095a7.884 7.884 0 0 0 15.768 0 17.986 17.986 0 0 0-2.982-9.128zm-.411 8.952a.673.673 0 1 1-1.346 0v-1.258l-3.351 3.352a.674.674 0 0 1-.952 0l-1.564-1.564L4.108 16.5a.673.673 0 1 1-.952-.952l1.53-1.53a.673.673 0 0 1 .952 0L7.2 15.585l2.876-2.876H8.818a.673.673 0 1 1 0-1.346H11.7a.673.673 0 0 1 .673.673v2.884zm0 0" class="cls-1"/>
</svg>
